<?xml version="1.0" encoding="utf-8" ?>
<svg baseProfile="full" height="1000" version="1.1" width="1000" xmlns="http://www.w3.org/2000/svg" xmlns:ev="http://www.w3.org/2001/xml-events" xmlns:xlink="http://www.w3.org/1999/xlink"><defs><style type="text/css"><![CDATA[
		g#decorative rect {
			stroke-width: 5px;
			stroke: darkGrey;
			fill: silver;
		}
		circle {
			stroke: none;
			fill: url(#radgrad);
		}
		g#moves text {
			font-size: 19px;
		}
		g#moves g line {
			stroke-width: 8px;
			stroke-linecap: round;
			stroke: black;
			marker-end: url(#head);
		}
		marker polygon {
			fill: #500;
		}
]]></style><radialGradient id="radgrad"><stop offset="0%" stop-color="white" /><stop offset="100%" stop-color="silver" /></radialGradient><marker id="head" markerHeight="4" markerWidth="4" orient="auto" refX="1.5" refY="2"><polygon points="0,0 4,2 0,4 1,2" /></marker></defs><g id="decorative"><rect height="1000" width="1000" x="0" y="0" /><circle cx="500" cy="500" r="500" /></g><g id="moves"><g id="for-Scissors"><circle cx="785.4" cy="159.88" r="56" /><text lengthAdjust="spacingAndGlyphs" text-anchor="middle" textLength="70.93" x="785.4" y="164.55">Scissors</text><g id="beats"><line x1="819.14" x2="886.63" y1="218.33" y2="335.23" /><line x1="755.72" x2="696.37" y1="328.18" y2="664.77" /><line x1="636.53" x2="338.79" y1="284.8" y2="534.63" /><line x1="658.56" x2="404.87" y1="159.88" y2="159.88" /></g></g><g id="for-Paper"><circle cx="937.25" cy="422.9" r="56" /><text lengthAdjust="spacingAndGlyphs" text-anchor="middle" textLength="44.33" x="937.25" y="427.57">Paper</text><g id="beats"><line x1="925.53" x2="902.1" y1="489.37" y2="622.3" /><line x1="806.34" x2="544.51" y1="532.75" y2="752.45" /><line x1="742.92" x2="354.25" y1="422.9" y2="422.9" /><line x1="840.08" x2="645.75" y1="341.37" y2="178.3" /></g></g><g id="for-Stone"><circle cx="884.52" cy="722.0" r="56" /><text lengthAdjust="spacingAndGlyphs" text-anchor="middle" textLength="44.33" x="884.52" y="726.67">Stone</text><g id="beats"><line x1="832.82" x2="729.41" y1="765.38" y2="852.15" /><line x1="713.62" x2="371.83" y1="722.0" y2="722.0" /><line x1="735.65" x2="437.91" y1="597.08" y2="347.25" /><line x1="862.49" x2="818.44" y1="597.08" y2="347.25" /></g></g><g id="for-Lizard"><circle cx="651.86" cy="917.22" r="56" /><text lengthAdjust="spacingAndGlyphs" text-anchor="middle" textLength="53.2" x="651.86" y="921.89">Lizard</text><g id="beats"><line x1="584.37" x2="449.38" y1="917.22" y2="917.22" /><line x1="520.95" x2="259.12" y1="807.37" y2="587.67" /><line x1="618.11" x2="550.62" y1="725.84" y2="343.07" /><line x1="715.28" x2="842.12" y1="807.37" y2="587.67" /></g></g><g id="for-Spock"><circle cx="348.14" cy="917.22" r="56" /><text lengthAdjust="spacingAndGlyphs" text-anchor="middle" textLength="44.33" x="348.14" y="921.89">Spock</text><g id="beats"><line x1="296.44" x2="193.03" y1="873.84" y2="787.07" /><line x1="318.46" x2="259.11" y1="748.92" y2="412.33" /><line x1="445.31" x2="639.65" y1="748.92" y2="412.33" /><line x1="467.34" x2="705.73" y1="873.84" y2="787.07" /></g></g><g id="for-Wizard"><circle cx="115.48" cy="722.0" r="56" /><text lengthAdjust="spacingAndGlyphs" text-anchor="middle" textLength="53.2" x="115.48" y="726.67">Wizard</text><g id="beats"><line x1="103.76" x2="80.33" y1="655.53" y2="522.6" /><line x1="200.93" x2="371.83" y1="574.0" y2="278.0" /><line x1="298.1" x2="663.33" y1="655.53" y2="522.6" /><line x1="234.68" x2="473.07" y1="765.38" y2="852.15" /></g></g><g id="for-Batman"><circle cx="62.75" cy="422.9" r="56" /><text lengthAdjust="spacingAndGlyphs" text-anchor="middle" textLength="53.2" x="62.75" y="427.57">Batman</text><g id="beats"><line x1="96.49" x2="163.98" y1="364.45" y2="247.55" /><line x1="223.34" x2="544.52" y1="364.45" y2="247.55" /><line x1="245.37" x2="610.6" y1="489.37" y2="622.3" /><line x1="126.17" x2="253.01" y1="532.75" y2="752.45" /></g></g><g id="for-Spider-man"><circle cx="214.6" cy="159.88" r="56" /><text lengthAdjust="spacingAndGlyphs" text-anchor="middle" textLength="88.67" x="214.6" y="164.55">Spider-man</text><g id="beats"><line x1="278.02" x2="404.87" y1="136.8" y2="90.63" /><line x1="375.19" x2="696.37" y1="218.33" y2="335.23" /><line x1="311.77" x2="506.11" y1="328.18" y2="664.77" /><line x1="192.57" x2="148.52" y1="284.8" y2="534.63" /></g></g><g id="for-Glock"><circle cx="500" cy="56" r="56" /><text lengthAdjust="spacingAndGlyphs" text-anchor="middle" textLength="44.33" x="500" y="60.67">Glock</text><g id="beats"><line x1="563.42" x2="690.27" y1="79.08" y2="125.25" /><line x1="585.45" x2="756.35" y1="204.0" y2="500.0" /><line x1="466.25" x2="398.76" y1="247.38" y2="630.15" /><line x1="402.83" x2="208.5" y1="137.53" y2="300.6" /></g></g></g></svg>