<?xml version="1.0" encoding="UTF-8"?>
<svg width="700" height="700" baseProfile="full" version="1.1" viewBox="0 0 1e3 1e3" xmlns="http://www.w3.org/2000/svg"><defs><style type="text/css"><![CDATA[
g#decorative rect {
stroke-width: 5px;
stroke: darkGrey;
fill: silver;
}
circle {
stroke: none;
fill: url(#radgrad);
}
g#moves text {
font-size: 24px;
}
g#moves g line {
stroke-width: 8px;
stroke-linecap: round;
stroke: black;
marker-end: url(#head);
}
marker polygon {
fill: #500;
}
]]></style><radialGradient id="radgrad"><stop stop-color="#fff" offset="0"/><stop stop-color="silver" offset="1"/></radialGradient><marker id="head" markerHeight="4" markerWidth="4" orient="auto" refX="1.5" refY="2"><polygon points="0 0 4 2 0 4 1 2"/></marker></defs><g id="decorative"><rect width="1e3" height="1e3"/><circle cx="500" cy="500" r="500"/></g><g id="moves"><g id="0-Scissors"><circle cx="835" cy="233" r="71"/><text x="835.41" y="238.44" text-anchor="middle" lengthAdjust="spacingAndGlyphs" textLength="89.93">Scissors</text><g class="beats"><line x1="854" x2="891" y1="313" y2="474"/><line x1="720" x2="488" y1="378" y2="669"/><line x1="686" x2="388" y1="233" y2="233"/></g></g><g id="1-Paper"><circle cx="918" cy="595" r="71"/><text x="918.24" y="601.38" text-anchor="middle" lengthAdjust="spacingAndGlyphs" textLength="56.21">Paper</text><g class="beats"><line x1="867" x2="764" y1="660" y2="790"/><line x1="732" x2="361" y1="595" y2="595"/><line x1="825" x2="639" y1="479" y2="246"/></g></g><g id="2-Stone"><circle cx="686" cy="887" r="71"/><text x="686.14" y="892.44" text-anchor="middle" lengthAdjust="spacingAndGlyphs" textLength="56.21">Stone</text><g class="beats"><line x1="603" x2="438" y1="887" y2="887"/><line x1="570" x2="338" y1="741" y2="451"/><line x1="719" x2="786" y1="741" y2="451"/></g></g><g id="3-Tablet"><circle cx="314" cy="887" r="71"/><text x="313.86" y="892.44" text-anchor="middle" lengthAdjust="spacingAndGlyphs" textLength="67.45">Tablet</text><g class="beats"><line x1="262" x2="159" y1="822" y2="692"/><line x1="355" x2="438" y1="705" y2="343"/><line x1="448" x2="717" y1="822" y2="692"/></g></g><g id="4-Phone"><circle cx="82" cy="595" r="71"/><text x="81.76" y="601.38" text-anchor="middle" lengthAdjust="spacingAndGlyphs" textLength="56.21">Phone</text><g class="beats"><line x1="100" x2="137" y1="515" y2="354"/><line x1="249" x2="584" y1="515" y2="354"/><line x1="216" x2="485" y1="660" y2="790"/></g></g><g id="5-Jedi"><circle cx="165" cy="233" r="71"/><text x="164.59" y="238.44" text-anchor="middle" lengthAdjust="spacingAndGlyphs" textLength="44.97">Jedi</text><g class="beats"><line x1="239" x2="388" y1="197" y2="125"/><line x1="332" x2="667" y1="313" y2="474"/><line x1="198" x2="264" y1="378" y2="669"/></g></g><g id="6-Clone"><circle cx="500" cy="71" r="71"/><text x="500" y="76.92" text-anchor="middle" lengthAdjust="spacingAndGlyphs" textLength="56.21">Clone</text><g class="beats"><line x1="575" x2="724" y1="107" y2="179"/><line x1="541" x2="624" y1="252" y2="615"/><line x1="407" x2="221" y1="188" y2="421"/></g></g></g></svg>
